Coordinates
version=1
nRows=10
nColumns=34
inDegrees=yes

Units are S.I. units (second, meters, Newtons, ...)
Angles are in degrees.

endheader
time	pelvis_tilt	pelvis_list	pelvis_rotation	pelvis_tx	pelvis_ty	pelvis_tz	hip_flexion_r	hip_adduction_r	hip_rotation_r	knee_angle_r	ankle_angle_r	subtalar_angle_r	mtp_angle_r	hip_flexion_l	hip_adduction_l	hip_rotation_l	knee_angle_l	socket_flexion	socket_adduction	socket_rotation	socket_tx	socket_ty	socket_tz	pros_ankle_rx	pros_ankle_ry	pros_ankle_rz	pros_ankle_tx	pros_ankle_ty	pros_ankle_tz	foot_flex	lumbar_extension	lumbar_bending	lumbar_rotation
      0.60000000	      1.43555429	     -5.94490006	      5.20646090	     -0.00347596	      1.02289599	      0.35281650	     18.46280839	      5.31762328	    -11.48992978	      4.51380964	     13.82758453	     10.34818901	      3.78350267	    -17.57309154	     -7.74845557	    -11.39926787	    -10.07900209	      4.53262272	      0.05162168	     15.51019416	      0.01673060	     -0.00951234	     -0.00507680	      0.00000000	      0.00000000	      0.00000000	      0.00000000	      0.00000000	      0.00000000	     14.64268022	    -20.01670641	      1.18998110	     -4.25423942
      0.60416667	      1.42975794	     -5.93519408	      5.40502294	      0.00253028	      1.02174791	      0.35277931	     18.58198755	      5.26773344	    -11.34435791	      4.35078710	     13.74458411	     10.37706609	      3.81295043	    -17.74715737	     -7.84002056	    -11.32822634	    -10.21726438	      4.66734859	      0.03643359	     15.61601571	      0.01717327	     -0.00927903	     -0.00492199	      0.00000000	      0.00000000	      0.00000000	      0.00000000	      0.00000000	      0.00000000	     14.72391949	    -19.97558611	      1.29074805	     -4.25964497
      0.60833333	      1.39191926	     -5.94963748	      5.59805952	      0.00877087	      1.02060533	      0.35271765	     18.67547824	      5.24663358	    -11.21491351	      4.23551540	     13.69123744	     10.39979687	      3.82194525	    -17.92119146	     -7.91784296	    -11.30722899	    -10.33930063	      4.79996179	     -0.00918548	     15.64618371	      0.01740139	     -0.00908320	     -0.00440472	      0.00000000	      0.00000000	      0.00000000	      0.00000000	      0.00000000	      0.00000000	     14.74465726	    -19.95733027	      1.32911053	     -4.26346561
      0.61250000	      1.41921322	     -6.04279361	      5.72589326	      0.01463238	      1.01943792	      0.35271229	     18.93071470	      5.29449675	    -11.03549214	      3.66063418	     13.42510514	     10.37486931	      3.92284065	    -18.10631198	     -8.10954092	    -11.28184324	    -10.51302058	      4.96081323	     -0.00740266	     15.75572088	      0.01796191	     -0.00903092	     -0.00438126	      0.00000000	      0.00000000	      0.00000000	      0.00000000	      0.00000000	      0.00000000	     14.88714287	    -19.96841445	      1.72106243	     -4.35800694
      0.61666667	      1.43810788	     -6.09802239	      5.93646436	      0.02088063	      1.01841415	      0.35260312	     19.01300254	      5.31126933	    -10.83326793	      3.34213917	     13.29160954	     10.39895649	      3.95647307	    -18.29701470	     -8.24192770	    -11.20760752	    -10.66239225	      5.12213241	     -0.07028620	     15.84012006	      0.01843929	     -0.00876731	     -0.00389764	      0.00000000	      0.00000000	      0.00000000	      0.00000000	      0.00000000	      0.00000000	     14.91442170	    -19.90126241	      1.82723432	     -4.37490909
      0.62083333	      1.24602549	     -6.43632696	      6.11357930	      0.02708921	      1.01667861	      0.35273715	     19.61790613	      5.55861019	    -11.09845725	      2.51970170	     12.79866321	     10.49576896	      5.59451177	    -18.08443461	     -8.91149329	    -11.44126147	    -10.99264448	      5.29876355	      0.10759394	     16.18791613	      0.01999640	     -0.00902595	     -0.00581997	      0.00000000	      0.00000000	      0.00000000	      0.00000000	      0.00000000	      0.00000000	     14.96923876	    -19.60412412	      2.43956085	     -4.53479932
      0.62500000	      1.31177280	     -6.50227845	      6.22503252	      0.03326641	      1.01574612	      0.35272864	     19.78279724	      5.59401609	    -10.88505062	      1.87035720	     12.52216130	     10.41867664	      5.82331526	    -18.32673397	     -9.01448218	    -11.44867161	    -11.16964817	      5.47754775	      0.04193880	     16.19110516	      0.02041878	     -0.00883178	     -0.00520721	      0.00000000	      0.00000000	      0.00000000	      0.00000000	      0.00000000	      0.00000000	     14.99500528	    -19.69464326	      2.68492255	     -4.55862727
      0.62916667	      1.39556662	     -6.57420368	      6.36075911	      0.03945192	      1.01489246	      0.35271247	     19.91375906	      5.63772967	    -10.67074962	      1.21410628	     12.15325545	     10.37498927	      5.91402090	    -18.54813453	     -9.13746731	    -11.42325574	    -11.36905699	      5.68346964	     -0.00996441	     16.20975314	      0.02095461	     -0.00855423	     -0.00461849	      0.00000000	      0.00000000	      0.00000000	      0.00000000	      0.00000000	      0.00000000	     15.01538671	    -19.70077710	      2.95346487	     -4.56202324
      0.63333333	      1.49063370	     -6.67601584	      6.49092734	      0.04568769	      1.01406439	      0.35269138	     20.05503614	      5.71311620	    -10.46185131	      0.48402087	     11.74975190	     10.30671489	      5.99590715	    -18.76515470	     -9.29564048	    -11.40074753	    -11.58313635	      5.90429138	     -0.06399976	     16.22029884	      0.02164104	     -0.00832275	     -0.00409808	      0.00000000	      0.00000000	      0.00000000	      0.00000000	      0.00000000	      0.00000000	     15.00151556	    -19.70140895	      3.20662725	     -4.56424158
      0.63750000	      1.34281982	     -6.95936736	      6.54978653	      0.05204540	      1.01262789	      0.35294325	     20.54429946	      5.96162850	    -10.35222538	     -0.33272702	     10.71445702	      9.66305702	      9.42068987	    -18.62040228	     -9.74159914	    -11.68527977	    -11.96980226	      6.09416581	     -0.04797295	     16.47145217	      0.02289198	     -0.00839121	     -0.00463641	      0.00000000	      0.00000000	      0.00000000	      0.00000000	      0.00000000	      0.00000000	     14.97320202	    -19.57034662	      3.62821510	     -4.49909366
